<svg width="1024" height="1024" viewBox="0 0 1024 1024" fill="none" xmlns="http://www.w3.org/2000/svg">
<path fill-rule="evenodd" clip-rule="evenodd" d="M525.377 270.757C491.145 278.845 477.939 282.425 444.682 292.63C394.352 308.077 379.291 311.743 339.162 318.314C186.342 343.336 154.05 353.677 106.754 392.738C43.3852 445.071 -9.21761 570.048 1.36084 643.14C5.6484 672.764 30.6502 707.34 57.8965 721.329C63.6994 724.309 83.1026 727.827 111.268 731.01C118.584 731.835 131.702 734.993 140.419 738.026L156.269 743.543H197.391C230.438 743.543 240.037 744.093 246.274 746.346C251.62 748.277 257.182 748.838 264.151 748.152C271.727 747.406 275.546 747.891 279.369 750.082C285.387 753.535 290.39 752.197 290.39 747.143C290.39 744.705 291.553 743.543 293.993 743.543C309.396 743.543 290.696 721.403 263.141 707.016C243.703 696.868 244.679 696.737 320.283 699.294C398.087 701.928 418.957 700.726 445.136 692.105C466.895 684.945 471.764 685.237 493.245 695.011L511.189 703.178L528.399 702.177C545.342 701.194 545.827 701.279 559.343 707.515C575.772 715.098 586.561 717.162 586.561 712.72C586.561 710.166 588.053 709.933 597.939 710.945C612.581 712.445 617.791 711.107 619.201 705.491C619.888 702.761 621.993 700.652 624.717 699.969C633.999 697.642 628.761 689.934 610.697 679.329C596.038 670.725 597.003 667.718 615.158 665.441C638.582 662.502 641.235 658.244 624.692 650.139C612.371 644.101 612.3 644.339 628.682 636.98C636.925 633.275 651.379 624 664.798 613.806C691.996 593.137 695.54 591.281 723.312 583.15C764.783 571.012 782.39 556.589 800.037 520.303C813.864 491.865 809.182 477.702 769.754 428.711C741.838 394.028 732.327 380.897 725.882 368.16C720.448 357.419 720.616 357.065 732.954 353.071C767.158 341.995 750.711 321.8 690.311 300.715C620.847 276.466 553.214 264.183 525.377 270.757Z" fill="#3978BA"/>
<rect x="385.909" y="714.061" width="419.96" height="36.8522" rx="5" fill="#3978BA"/>
<rect width="419.665" height="36.8781" rx="5" transform="matrix(0.533296 -0.845929 0.8464 0.532548 768.98 734.563)" fill="#3978BA"/>
<path d="M645.938 693.971L656.007 636.137L678.802 645.309L645.938 693.971Z" fill="#3978BA"/>
<path d="M659.772 698.022L704.115 659.506L716.005 680.992L659.772 698.022Z" fill="#3978BA"/>
</svg>
